# xmcd CD database file
#
# Track frame offsets:
#	150
#	23819
#	43164
#	64077
#	81402
#	98410
#	116508
#	137735
#	152395
#
# Disc length: 2317 seconds
#
# Revision: 0
# Processed by: cddbd v1.5.1PL0 Copyright (c) Steve Scherf et al.
# Submitted via: CDex 1.51
#
DISCID=6a090b09
DTITLE=keyboard - The Last Arrangement CD
DYEAR=2002
DGENRE=Game
TTITLE0=going on
TTITLE1=Moon Tears
TTITLE2=The Fly
TTITLE3=真夜中をぶっ飛ばせ！
TTITLE4=みずいろ
TTITLE5=夕焼け〜Rise or Lies？
TTITLE6=farewell song
TTITLE7=夏影
TTITLE8=たいやきを探して
EXTD=YEAR: 2002
EXTT0=
EXTT1=
EXTT2=
EXTT3=
EXTT4=
EXTT5=
EXTT6=
EXTT7=
EXTT8=
PLAYORDER=
